<svg width="24" height="24" viewBox="0 0 24 24" fill="none" xmlns="http://www.w3.org/2000/svg">
<path fill-rule="evenodd" clip-rule="evenodd" d="M7.21629 16.0029C7.05629 16.0029 6.89529 15.9519 6.75929 15.8479C6.43129 15.5949 6.36929 15.1239 6.62229 14.7959L9.61529 10.9059C9.73729 10.7469 9.91829 10.6439 10.1163 10.6189C10.3183 10.5929 10.5163 10.6489 10.6733 10.7739L13.4933 12.9889L15.9603 9.80587C16.2143 9.47687 16.6843 9.41587 17.0123 9.67187C17.3403 9.92587 17.4003 10.3969 17.1463 10.7239L14.2163 14.5039C14.0943 14.6619 13.9143 14.7649 13.7163 14.7889C13.5163 14.8159 13.3183 14.7579 13.1603 14.6349L10.3423 12.4209L7.81129 15.7099C7.66329 15.9019 7.44129 16.0029 7.21629 16.0029Z" fill="black"/>
<mask id="mask0_1_1901" style="mask-type:luminance" maskUnits="userSpaceOnUse" x="17" y="2" width="6" height="6">
<path fill-rule="evenodd" clip-rule="evenodd" d="M17.2953 2.00012H22.6393V7.34502H17.2953V2.00012Z" fill="white"/>
</mask>
<g mask="url(#mask0_1_1901)">
<path fill-rule="evenodd" clip-rule="evenodd" d="M19.9673 3.5C19.3213 3.5 18.7953 4.025 18.7953 4.672C18.7953 5.318 19.3213 5.845 19.9673 5.845C20.6133 5.845 21.1393 5.318 21.1393 4.672C21.1393 4.025 20.6133 3.5 19.9673 3.5ZM19.9673 7.345C18.4943 7.345 17.2953 6.146 17.2953 4.672C17.2953 3.198 18.4943 2 19.9673 2C21.4413 2 22.6393 3.198 22.6393 4.672C22.6393 6.146 21.4413 7.345 19.9673 7.345Z" fill="black"/>
</g>
<mask id="mask1_1_1901" style="mask-type:luminance" maskUnits="userSpaceOnUse" x="2" y="2" width="20" height="21">
<path fill-rule="evenodd" clip-rule="evenodd" d="M2 2.84216H21.8619V22.7032H2V2.84216Z" fill="white"/>
</mask>
<g mask="url(#mask1_1_1901)">
<path fill-rule="evenodd" clip-rule="evenodd" d="M16.2329 22.7032H7.62888C4.26188 22.7032 1.99988 20.3382 1.99988 16.8182V8.73616C1.99988 5.21116 4.26188 2.84216 7.62888 2.84216H14.8969C15.3109 2.84216 15.6469 3.17816 15.6469 3.59216C15.6469 4.00616 15.3109 4.34216 14.8969 4.34216H7.62888C5.12088 4.34216 3.49988 6.06616 3.49988 8.73616V16.8182C3.49988 19.5232 5.08188 21.2032 7.62888 21.2032H16.2329C18.7409 21.2032 20.3619 19.4822 20.3619 16.8182V9.77916C20.3619 9.36516 20.6979 9.02916 21.1119 9.02916C21.5259 9.02916 21.8619 9.36516 21.8619 9.77916V16.8182C21.8619 20.3382 19.5999 22.7032 16.2329 22.7032Z" fill="black"/>
</g>
</svg>
