<?xml version="1.0" encoding="UTF-8" standalone="no" ?>
<!DOCTYPE svg PUBLIC "-//W3C//DTD SVG 1.1//EN" "http://www.w3.org/Graphics/SVG/1.1/DTD/svg11.dtd">
<svg xmlns="http://www.w3.org/2000/svg" xmlns:xlink="http://www.w3.org/1999/xlink" version="1.1" width="1080" height="1080" viewBox="0 0 1080 1080" xml:space="preserve">
<desc>Created with Fabric.js 5.2.4</desc>
<defs>
</defs>
<rect x="0" y="0" width="100%" height="100%" fill="transparent"></rect>
<g transform="matrix(1 0 0 1 540 540)" id="349364d8-345a-46ef-a7df-614cf74cf605"  >
<rect style="stroke: none; stroke-width: 1; stroke-dasharray: none; stroke-linecap: butt; stroke-dashoffset: 0; stroke-linejoin: miter; stroke-miterlimit: 4; fill: rgb(255,255,255); fill-rule: nonzero; opacity: 1; visibility: hidden;" vector-effect="non-scaling-stroke"  x="-540" y="-540" rx="0" ry="0" width="1080" height="1080" />
</g>
<g transform="matrix(1 0 0 1 540 540)" id="866223df-9d19-4895-b490-cd318f23e3a4"  >
</g>
<g transform="matrix(45 0 0 45 540 540)"  >
<path style="stroke: none; stroke-width: 1; stroke-dasharray: none; stroke-linecap: butt; stroke-dashoffset: 0; stroke-linejoin: miter; stroke-miterlimit: 4; fill: rgb(255,228,90); fill-rule: evenodd; opacity: 1;"  transform=" translate(-11.75, -12.25)" d="M 11.7499 4.5 C 11.6589 4.5 11.4349 4.525 11.3159 4.763 L 9.48992 8.414 C 9.20092 8.991 8.64392 9.392 7.99992 9.484 L 3.91192 10.073 C 3.64192 10.112 3.54992 10.312 3.52192 10.396 C 3.49692 10.477 3.45692 10.683 3.64292 10.861 L 6.59892 13.701 C 7.06992 14.154 7.28392 14.807 7.17192 15.446 L 6.47592 19.456 C 6.43292 19.707 6.58992 19.853 6.65992 19.903 C 6.73392 19.959 6.93192 20.07 7.17692 19.942 L 10.8319 18.047 C 11.4079 17.75 12.0939 17.75 12.6679 18.047 L 16.3219 19.941 C 16.5679 20.068 16.7659 19.957 16.8409 19.903 C 16.9109 19.853 17.0679 19.707 17.0249 19.456 L 16.3269 15.446 C 16.2149 14.807 16.4289 14.154 16.8999 13.701 L 19.8559 10.861 C 20.0429 10.683 20.0029 10.476 19.9769 10.396 C 19.9499 10.312 19.8579 10.112 19.5879 10.073 L 15.4999 9.484 C 14.8569 9.392 14.2999 8.991 14.0109 8.413 L 12.1829 4.763 C 12.0649 4.525 11.8409 4.5 11.7499 4.5 Z M 6.94692 21.5 C 6.53392 21.5 6.12392 21.37 5.77292 21.114 C 5.16692 20.67 4.86992 19.937 4.99892 19.199 L 5.69492 15.189 C 5.72092 15.04 5.66992 14.889 5.55992 14.783 L 2.60392 11.943 C 2.05992 11.422 1.86492 10.652 2.09492 9.937 C 2.32692 9.214 2.94092 8.697 3.69792 8.589 L 7.78592 8 C 7.94392 7.978 8.07992 7.881 8.14792 7.743 L 9.97492 4.091 C 10.3119 3.418 10.9919 3 11.7499 3 C 12.5079 3 13.1879 3.418 13.5249 4.091 L 15.3529 7.742 C 15.4219 7.881 15.5569 7.978 15.7139 8 L 19.8019 8.589 C 20.5589 8.697 21.1729 9.214 21.4049 9.937 C 21.6349 10.652 21.4389 11.422 20.8949 11.943 L 17.9389 14.783 C 17.8289 14.889 17.7789 15.04 17.8049 15.188 L 18.5019 19.199 C 18.6299 19.938 18.3329 20.671 17.7259 21.114 C 17.1109 21.565 16.3099 21.626 15.6309 21.272 L 11.9779 19.379 C 11.8349 19.305 11.6639 19.305 11.5209 19.379 L 7.86792 21.273 C 7.57592 21.425 7.26092 21.5 6.94692 21.5 Z" stroke-linecap="round" />
</g>
<g transform="matrix(7.7 0 0 5.63 528.99 658.34)" id="f4be3c49-4b4f-4977-b3e5-3e020f0676df"  >
<rect style="stroke: rgb(0,0,0); stroke-width: 0; stroke-dasharray: none; stroke-linecap: butt; stroke-dashoffset: 0; stroke-linejoin: miter; stroke-miterlimit: 4; fill: rgb(255,229,91); fill-rule: nonzero; opacity: 1;" vector-effect="non-scaling-stroke"  x="-33.085" y="-33.085" rx="0" ry="0" width="66.17" height="66.17" />
</g>
<g transform="matrix(0 2.81 -1.98 0 349.76 807.82)" id="f4be3c49-4b4f-4977-b3e5-3e020f0676df"  >
<rect style="stroke: rgb(0,0,0); stroke-width: 0; stroke-dasharray: none; stroke-linecap: butt; stroke-dashoffset: 0; stroke-linejoin: miter; stroke-miterlimit: 4; fill: rgb(255,229,91); fill-rule: nonzero; opacity: 1;" vector-effect="non-scaling-stroke"  x="-33.085" y="-33.085" rx="0" ry="0" width="66.17" height="66.17" />
</g>
<g transform="matrix(0 2.81 -1.98 0 728.1 821.85)" id="f4be3c49-4b4f-4977-b3e5-3e020f0676df"  >
<rect style="stroke: rgb(0,0,0); stroke-width: 0; stroke-dasharray: none; stroke-linecap: butt; stroke-dashoffset: 0; stroke-linejoin: miter; stroke-miterlimit: 4; fill: rgb(255,229,91); fill-rule: nonzero; opacity: 1;" vector-effect="non-scaling-stroke"  x="-33.085" y="-33.085" rx="0" ry="0" width="66.17" height="66.17" />
</g>
<g transform="matrix(-2.81 0 0 -1.98 772.32 540)" id="f4be3c49-4b4f-4977-b3e5-3e020f0676df"  >
<rect style="stroke: rgb(0,0,0); stroke-width: 0; stroke-dasharray: none; stroke-linecap: butt; stroke-dashoffset: 0; stroke-linejoin: miter; stroke-miterlimit: 4; fill: rgb(255,229,91); fill-rule: nonzero; opacity: 1;" vector-effect="non-scaling-stroke"  x="-33.085" y="-33.085" rx="0" ry="0" width="66.17" height="66.17" />
</g>
<g transform="matrix(-2.81 0 0 -1.98 329.44 540)" id="f4be3c49-4b4f-4977-b3e5-3e020f0676df"  >
<rect style="stroke: rgb(0,0,0); stroke-width: 0; stroke-dasharray: none; stroke-linecap: butt; stroke-dashoffset: 0; stroke-linejoin: miter; stroke-miterlimit: 4; fill: rgb(255,229,91); fill-rule: nonzero; opacity: 1;" vector-effect="non-scaling-stroke"  x="-33.085" y="-33.085" rx="0" ry="0" width="66.17" height="66.17" />
</g>
<g transform="matrix(-1.77 0 0 -1.25 218.45 517.91)" id="f4be3c49-4b4f-4977-b3e5-3e020f0676df"  >
<rect style="stroke: rgb(0,0,0); stroke-width: 0; stroke-dasharray: none; stroke-linecap: butt; stroke-dashoffset: 0; stroke-linejoin: miter; stroke-miterlimit: 4; fill: rgb(255,229,91); fill-rule: nonzero; opacity: 1;" vector-effect="non-scaling-stroke"  x="-33.085" y="-33.085" rx="0" ry="0" width="66.17" height="66.17" />
</g>
<g transform="matrix(-1.77 0 0 -1.25 852.38 515.72)" id="f4be3c49-4b4f-4977-b3e5-3e020f0676df"  >
<rect style="stroke: rgb(0,0,0); stroke-width: 0; stroke-dasharray: none; stroke-linecap: butt; stroke-dashoffset: 0; stroke-linejoin: miter; stroke-miterlimit: 4; fill: rgb(255,229,91); fill-rule: nonzero; opacity: 1;" vector-effect="non-scaling-stroke"  x="-33.085" y="-33.085" rx="0" ry="0" width="66.17" height="66.17" />
</g>
</svg>